<?xml version="1.0" encoding="iso-8859-1"?>
<!-- Uploaded to: SVG Repo, www.svgrepo.com, Generator: SVG Repo Mixer Tools -->
<svg version="1.1" id="Layer_1" xmlns="http://www.w3.org/2000/svg" xmlns:xlink="http://www.w3.org/1999/xlink" 
	 viewBox="0 0 512 512" xml:space="preserve">
<rect x="165.153" y="132.31" style="fill:#FEE187;" width="181.707" height="305.974"/>
<path style="fill:#FFC61B;" d="M346.85,452.88H165.149c-8.061,0-14.597-6.537-14.597-14.597V132.304
	c0-8.061,6.537-14.597,14.597-14.597h181.703c8.061,0,14.597,6.537,14.597,14.597v305.978
	C361.447,446.343,354.912,452.88,346.85,452.88z M179.746,423.685h152.508V146.901H179.746V423.685z"/>
<rect x="179.371" y="14.597" style="fill:#FEE187;" width="153.272" height="60.655"/>
<path style="fill:#FFC61B;" d="M405.239,148.606c8.061,0,14.597-6.537,14.597-14.597v-59.12c0-8.061-6.537-14.597-14.597-14.597
	h-58.008V14.597C347.231,6.537,340.694,0,332.634,0H179.365c-8.061,0-14.597,6.537-14.597,14.597v45.694h-58.008
	c-8.061,0-14.597,6.537-14.597,14.597v422.514c0,8.061,6.537,14.597,14.597,14.597h298.481c8.061,0,14.597-6.537,14.597-14.597
	V210.08c0-8.061-6.537-14.597-14.597-14.597s-14.597,6.537-14.597,14.597v272.726H121.357V89.486h54.801
	c1.033,0.232,2.103,0.365,3.207,0.365h153.269c1.104,0,2.174-0.133,3.207-0.365h54.801v44.523
	C390.642,142.07,397.178,148.606,405.239,148.606z M193.962,29.195h124.074v31.097H193.962V29.195z"/>
</svg>